<svg width="575" height="419" viewBox="0 0 575 419" fill="none" xmlns="http://www.w3.org/2000/svg">
<path d="M482.329 225.286H92.0742V239.288H482.329V225.286Z" fill="#407BFF"/>
<path opacity="0.3" d="M196.521 225.286H92.0742V239.288H196.521V225.286Z" fill="white"/>
<path d="M198.186 239.299H189.101L193.856 414.779H198.186H202.517L207.284 239.299H198.186Z" fill="#407BFF"/>
<path opacity="0.3" d="M193.856 414.779H198.187V243.067L189.25 244.698L193.856 414.779Z" fill="white"/>
<path d="M112.072 239.299H102.986L107.742 414.779H112.072H116.403L121.158 239.299H112.072Z" fill="#407BFF"/>
<path opacity="0.3" d="M107.742 414.779H112.072V243.067L103.124 244.698L107.742 414.779Z" fill="white"/>
<path d="M462.331 239.299H453.245L458.012 414.779H462.331H466.661L471.428 239.299H462.331Z" fill="#407BFF"/>
<path opacity="0.3" d="M458.012 414.779H462.331V243.067L453.395 244.698L458.012 414.779Z" fill="white"/>
<path d="M376.217 239.299H367.131L371.886 414.779H376.217H380.547L385.303 239.299H376.217Z" fill="#407BFF"/>
<path opacity="0.3" d="M371.886 414.779H376.217V243.067L367.269 244.698L371.886 414.779Z" fill="white"/>
<path d="M277.318 150.336H184.461C181.13 150.336 178.97 153.058 179.671 156.401L192.042 215.384C192.743 218.715 196.039 221.449 199.37 221.449H292.228C295.559 221.449 297.718 218.727 297.018 215.384L284.647 156.401C283.946 153.07 280.649 150.336 277.318 150.336Z" fill="#263238"/>
<path d="M200.231 218.072C198.049 218.072 195.74 216.142 195.269 213.937L182.898 154.953C182.703 154.046 182.863 153.23 183.323 152.656C183.759 152.116 184.472 151.818 185.31 151.818H278.167C280.35 151.818 282.659 153.747 283.13 155.953L295.5 214.936C295.684 215.844 295.535 216.659 295.076 217.233C294.628 217.785 293.938 218.072 293.088 218.072H200.231Z" fill="white"/>
<path opacity="0.4" d="M270.289 213.351L258.572 157.469C258.274 156.056 259.353 154.724 260.801 154.724H275.871C276.951 154.724 277.881 155.482 278.099 156.527L289.816 212.409C290.114 213.822 289.035 215.155 287.587 215.155H272.517C271.437 215.155 270.507 214.396 270.289 213.351Z" fill="#407BFF"/>
<path d="M190.639 159.571L190.134 157.147H208.742L209.247 159.571H190.639Z" fill="#407BFF"/>
<path d="M199.232 165.59L198.727 163.155H231.337L231.854 165.59H199.232Z" fill="#EBEBEB"/>
<path d="M200.953 171.597L200.437 169.174H236.998L237.504 171.597H200.953Z" fill="#EBEBEB"/>
<path d="M202.666 177.605L202.16 175.181H231.589L232.106 177.605H202.666Z" fill="#EBEBEB"/>
<path d="M196.304 187.368L195.787 184.945H207.561L208.066 187.368H196.304Z" fill="#407BFF"/>
<path d="M204.885 193.376L204.38 190.952H218.727L219.232 193.376H204.885Z" fill="#EBEBEB"/>
<path d="M222.666 193.376L222.16 190.952H236.495L237.001 193.376H222.666Z" fill="#EBEBEB"/>
<path d="M206.608 199.395L206.103 196.971H254.576L255.081 199.395H206.608Z" fill="#EBEBEB"/>
<path d="M208.319 205.402L207.813 202.979H244.777L245.283 205.402H208.319Z" fill="#EBEBEB"/>
<path d="M320.668 221.082H198.497C195.166 221.082 193.007 222.977 193.707 225.286H328.008C327.307 222.977 324.011 221.082 320.679 221.082H320.668Z" fill="#263238"/>
<path opacity="0.1" d="M158.352 135.415L146.636 79.5329C146.337 78.12 147.417 76.7876 148.864 76.7876H243.743C244.823 76.7876 245.753 77.5457 245.971 78.591L257.688 134.473C257.986 135.886 256.907 137.218 255.459 137.218H160.58C159.501 137.218 158.57 136.46 158.352 135.415Z" fill="#407BFF"/>
<path d="M192.077 78.637H172.159L171.711 76.489H191.629L192.077 78.637Z" fill="#407BFF"/>
<path opacity="0.4" d="M188.836 82.0486H180.842L180.394 79.9121H188.388L188.836 82.0486Z" fill="#407BFF"/>
<path opacity="0.4" d="M202.139 82.0486H189.825L189.377 79.9121H201.691L202.139 82.0486Z" fill="#407BFF"/>
<path opacity="0.4" d="M207.503 85.4715H181.554L181.106 83.3235H207.066L207.503 85.4715Z" fill="#407BFF"/>
<path opacity="0.4" d="M204.207 88.8831H182.267L181.819 86.7466H203.759L204.207 88.8831Z" fill="#407BFF"/>
<path opacity="0.4" d="M218.761 125.203H204.793L205.241 127.34H219.209L218.761 125.203Z" fill="#407BFF"/>
<path d="M201.348 120.505H180.89L180.442 118.369H200.9L201.348 120.505Z" fill="#407BFF"/>
<path opacity="0.4" d="M209.572 128.615H190.551L190.999 130.763H210.02L209.572 128.615Z" fill="#407BFF"/>
<path opacity="0.4" d="M203.807 125.203H189.839L190.287 127.34H204.254L203.807 125.203Z" fill="#407BFF"/>
<path opacity="0.4" d="M217.06 121.781H189.125L189.573 123.929H217.497L217.06 121.781Z" fill="#407BFF"/>
<path d="M191.377 62.6936H168.841L168.393 60.5457H190.929L191.377 62.6936Z" fill="#407BFF"/>
<path opacity="0.4" d="M202.506 70.8032H177.649L178.097 72.9397H202.954L202.506 70.8032Z" fill="#407BFF"/>
<path opacity="0.4" d="M197.534 67.3801H176.938L177.386 69.5281H197.982L197.534 67.3801Z" fill="#407BFF"/>
<path opacity="0.4" d="M198.901 63.9688H176.227L176.675 66.1052H199.349L198.901 63.9688Z" fill="#407BFF"/>
<path d="M191.124 94.4424H175.457L175.009 92.3059H190.676L191.124 94.4424Z" fill="#407BFF"/>
<path opacity="0.4" d="M215.729 102.552H185.117L185.565 104.7H216.177L215.729 102.552Z" fill="#407BFF"/>
<path opacity="0.4" d="M197.086 99.1404H184.405L184.853 101.277H197.534L197.086 99.1404Z" fill="#407BFF"/>
<path opacity="0.4" d="M210.846 99.1404H198.165L198.613 101.277H211.294L210.846 99.1404Z" fill="#407BFF"/>
<path opacity="0.4" d="M211.627 95.7175H183.691L184.139 97.8655H212.063L211.627 95.7175Z" fill="#407BFF"/>
<path opacity="0.4" d="M211.571 112.809H187.254L187.702 114.946H212.019L211.571 112.809Z" fill="#407BFF"/>
<path opacity="0.4" d="M193.617 109.386H186.541L186.989 111.534H194.065L193.617 109.386Z" fill="#407BFF"/>
<path opacity="0.4" d="M204.679 109.386H194.582L195.03 111.534H205.127L204.679 109.386Z" fill="#407BFF"/>
<path opacity="0.4" d="M213.764 105.975H185.829L186.277 108.111H214.212L213.764 105.975Z" fill="#407BFF"/>
<path opacity="0.4" d="M235.761 105.401H225.757L225.309 103.253H235.325L235.761 105.401Z" fill="#407BFF"/>
<path opacity="0.4" d="M252.417 105.401H237.002L236.554 103.253H251.969L252.417 105.401Z" fill="#407BFF"/>
<path opacity="0.4" d="M258.964 108.812H226.468L226.021 106.676H258.516L258.964 108.812Z" fill="#407BFF"/>
<path opacity="0.4" d="M254.646 112.235H227.181L226.733 110.087H254.198L254.646 112.235Z" fill="#407BFF"/>
<path opacity="0.4" d="M266.946 91.8005H235.829L236.277 93.9485H267.394L266.946 91.8005Z" fill="#407BFF"/>
<path opacity="0.4" d="M260.904 88.3892H235.117L235.565 90.5257H261.341L260.904 88.3892Z" fill="#407BFF"/>
<path d="M256.24 84.9661H227.846L228.294 87.114H256.688L256.24 84.9661Z" fill="#407BFF"/>
<path opacity="0.4" d="M268.348 125.904H230.029L230.477 128.041H268.796L268.348 125.904Z" fill="#407BFF"/>
<path opacity="0.4" d="M245.191 122.481H229.316L229.764 124.629H245.639L245.191 122.481Z" fill="#407BFF"/>
<path opacity="0.4" d="M262.421 122.481H246.547L246.995 124.629H262.869L262.421 122.481Z" fill="#407BFF"/>
<path opacity="0.4" d="M263.57 119.07H228.604L229.052 121.206H264.018L263.57 119.07Z" fill="#407BFF"/>
<path opacity="0.4" d="M262.604 136.15H232.165L232.613 138.298H263.052L262.604 136.15Z" fill="#407BFF"/>
<path opacity="0.4" d="M240.31 132.739H231.454L231.902 134.875H240.758L240.31 132.739Z" fill="#407BFF"/>
<path opacity="0.4" d="M254.163 132.739H241.527L241.975 134.875H254.611L254.163 132.739Z" fill="#407BFF"/>
<path opacity="0.4" d="M265.706 129.316H230.741L231.189 131.464H266.154L265.706 129.316Z" fill="#407BFF"/>
<path opacity="0.4" d="M172.584 138.803H148.761L149.209 140.94H173.032L172.584 138.803Z" fill="#407BFF"/>
<path opacity="0.4" d="M165.531 135.381H148.049L148.497 137.529H165.979L165.531 135.381Z" fill="#407BFF"/>
<path opacity="0.4" d="M184.265 135.381H166.771L167.219 137.529H184.702L184.265 135.381Z" fill="#407BFF"/>
<path opacity="0.4" d="M182.313 131.969H147.337L147.785 134.105H182.75L182.313 131.969Z" fill="#407BFF"/>
<path d="M449.809 202.979H435.061L436.784 225.286H448.098L449.809 202.979Z" fill="#407BFF"/>
<path opacity="0.4" d="M449.809 202.979H435.061L436.784 225.286H448.098L449.809 202.979Z" fill="white"/>
<path d="M128.394 187.483H149.598L142.361 225.286H121.157L128.394 187.483Z" fill="#263238"/>
<path d="M155.399 177.352H125.453L133.838 225.286H163.784L155.399 177.352Z" fill="#407BFF"/>
<path d="M123.686 177.352H125.454L133.84 225.286H132.071L123.686 177.352Z" fill="#407BFF"/>
<path opacity="0.3" d="M123.686 177.352H125.454L133.84 225.286H132.071L123.686 177.352Z" fill="black"/>
<path d="M138.145 220.163L131.552 182.475H151.102L157.684 220.163H138.145Z" fill="white"/>
<path opacity="0.6" d="M156.755 220.163L150.173 182.475H151.103L157.685 220.163H156.755Z" fill="#407BFF"/>
<path d="M303.724 116.026C304.149 116.945 304.011 117.921 303.403 118.197C302.805 118.472 301.967 117.955 301.542 117.037C301.117 116.118 301.255 115.141 301.863 114.866C302.461 114.59 303.299 115.107 303.724 116.026Z" fill="#263238"/>
<path d="M304.091 117.875C304.091 117.875 304.459 124.158 303.333 127.776C305.665 128.546 308.111 126.57 308.111 126.57L304.091 117.875Z" fill="#FF5652"/>
<path d="M303.839 108.479C303.747 108.56 303.632 108.605 303.494 108.605C300.875 108.755 299.761 110.581 299.715 110.662C299.543 110.949 299.187 111.041 298.899 110.88C298.612 110.719 298.52 110.351 298.681 110.064C298.739 109.961 300.14 107.595 303.425 107.411C303.758 107.388 304.034 107.641 304.057 107.974C304.057 108.169 303.977 108.353 303.839 108.468V108.479Z" fill="#263238"/>
<path d="M337.552 114.636C341.101 126.926 345.064 136.483 349.9 141.905C349.9 141.905 349.992 151.565 333.52 156.16C315.417 161.214 322.355 149.589 322.355 149.589C331.579 144.466 330.671 136.747 323.756 133.818L337.54 114.636H337.552Z" fill="#FF8B7B"/>
<path d="M353.736 139.562C353.414 135.059 352.989 129.936 350.21 129.81C347.154 129.672 329.465 137.563 325.686 143.146C321.907 148.716 329.281 154.173 329.281 154.173L353.725 139.562H353.736Z" fill="#263238"/>
<path d="M317.531 209.113L302.254 208.607L302.53 221.403C302.53 221.403 315.854 220.025 316.451 216.533L317.542 209.113H317.531Z" fill="#FF8B7B"/>
<path d="M294.179 214.89L292.571 221.438L302.53 221.415L302.254 208.619L294.179 214.89Z" fill="#FF8B7B"/>
<path d="M378.847 155.941L378.525 159.227C378.422 160.283 378.272 161.329 378.134 162.362C377.87 164.442 377.537 166.521 377.181 168.588C376.492 172.735 375.596 176.858 374.574 181.005C373.494 185.14 372.311 189.31 370.76 193.491C369.968 195.593 369.141 197.695 368.153 199.832C367.165 201.968 366.097 204.116 364.707 206.321C364.385 206.861 364.006 207.424 363.627 207.976C363.259 208.527 362.869 209.078 362.432 209.653C361.996 210.215 361.605 210.767 361.077 211.341L360.33 212.191C360.089 212.467 359.836 212.742 359.48 213.087C356.815 215.706 354.082 217.291 351.52 218.44C346.397 220.691 341.745 221.553 337.242 222.058C335.003 222.322 332.786 222.426 330.603 222.472C328.421 222.529 326.273 222.483 324.136 222.368C322 222.276 319.886 222.058 317.784 221.817C315.648 221.553 313.638 221.231 311.409 220.783L311.777 208.78C319.151 207.309 326.87 205.805 333.486 203.599C335.14 203.071 336.726 202.45 338.15 201.807C339.586 201.187 340.884 200.498 341.849 199.809C342.813 199.119 343.445 198.453 343.514 198.177L343.859 197.649C343.996 197.477 344.134 197.178 344.284 196.937C344.433 196.707 344.582 196.42 344.732 196.121C344.881 195.834 345.042 195.559 345.18 195.214C346.386 192.664 347.557 189.459 348.499 186.105C349.441 182.728 350.337 179.19 351.038 175.56C351.819 171.954 352.439 168.244 353.071 164.533L353.944 158.951L354.725 153.518L378.847 155.941Z" fill="#407BFF"/>
<path opacity="0.2" d="M378.847 155.941L378.525 159.227C378.422 160.283 378.272 161.329 378.134 162.362C377.87 164.442 377.537 166.521 377.181 168.588C376.492 172.735 375.596 176.858 374.574 181.005C373.494 185.14 372.311 189.31 370.76 193.491C369.968 195.593 369.141 197.695 368.153 199.832C367.165 201.968 366.097 204.116 364.707 206.321C364.385 206.861 364.006 207.424 363.627 207.976C363.259 208.527 362.869 209.078 362.432 209.653C361.996 210.215 361.605 210.767 361.077 211.341L360.33 212.191C360.089 212.467 359.836 212.742 359.48 213.087C356.815 215.706 354.082 217.291 351.52 218.44C346.397 220.691 341.745 221.553 337.242 222.058C335.003 222.322 332.786 222.426 330.603 222.472C328.421 222.529 326.273 222.483 324.136 222.368C322 222.276 319.886 222.058 317.784 221.817C315.648 221.553 313.638 221.231 311.409 220.783L311.777 208.78C319.151 207.309 326.87 205.805 333.486 203.599C335.14 203.071 336.726 202.45 338.15 201.807C339.586 201.187 340.884 200.498 341.849 199.809C342.813 199.119 343.445 198.453 343.514 198.177L343.859 197.649C343.996 197.477 344.134 197.178 344.284 196.937C344.433 196.707 344.582 196.42 344.732 196.121C344.881 195.834 345.042 195.559 345.18 195.214C346.386 192.664 347.557 189.459 348.499 186.105C349.441 182.728 350.337 179.19 351.038 175.56C351.819 171.954 352.439 168.244 353.071 164.533L353.944 158.951L354.725 153.518L378.847 155.941Z" fill="black"/>
<path d="M311.019 171.15C314.718 186.519 319.496 212.295 320.587 245.985H387.841C388.209 237.668 386.807 190.895 380.042 157.01C377.469 144.133 364.834 135.794 352.015 138.677C351.911 138.7 351.796 138.723 351.693 138.746C343.308 140.653 331.247 143.743 324.16 146.431C324.068 146.465 323.964 146.5 323.873 146.546C314.017 150.336 308.55 160.892 311.019 171.15Z" fill="#407BFF"/>
<path opacity="0.2" d="M315.394 192.687C315.922 195.915 316.462 199.326 316.956 202.921C322.458 197.178 324.204 179.581 324.204 179.581L315.394 192.698V192.687Z" fill="black"/>
<path d="M259.523 209.94L244.303 208.515L243.798 221.3C243.798 221.3 251.632 223.873 257.984 217.28L259.523 209.94Z" fill="#FF8B7B"/>
<path d="M236.999 212.294L232.105 221.082L243.799 221.311L244.304 208.515L236.999 212.294Z" fill="#FF8B7B"/>
<path d="M336.254 165.303C335.197 167.325 334.255 169.093 333.198 170.931C332.165 172.746 331.119 174.561 330.04 176.342C327.88 179.914 325.64 183.44 323.274 186.921C318.553 193.881 313.476 200.67 307.526 207.183C304.562 210.457 301.323 213.627 297.544 216.671C297.096 217.05 296.568 217.429 296.074 217.808C295.568 218.187 295.143 218.532 294.397 218.991C293.731 219.439 293.053 219.841 292.375 220.197C291.697 220.576 291.031 220.898 290.342 221.196C287.631 222.391 284.978 223.115 282.439 223.597C277.339 224.493 272.595 224.424 268.058 223.919C265.795 223.62 263.578 223.276 261.396 222.736C260.305 222.483 259.225 222.196 258.157 221.874C257.054 221.564 256.078 221.196 254.849 220.771L256.755 208.917C263.969 207.941 271.768 206.689 277.144 204.254C278.488 203.679 279.637 203.013 280.487 202.324C280.912 201.991 281.302 201.681 281.566 201.371C281.658 201.267 282.003 200.957 282.278 200.704C282.566 200.44 282.841 200.211 283.14 199.912C285.449 197.672 287.769 195.007 290.043 192.158C294.569 186.438 298.854 180.086 302.989 173.596C305.056 170.346 307.078 167.037 309.077 163.718L312.04 158.721L314.9 153.828L336.254 165.303Z" fill="#407BFF"/>
<path d="M317.795 405.073H305.228L298.899 375.955H311.477L317.795 405.073Z" fill="#FF8B7B"/>
<path d="M304.528 402.374H318.656C319.173 402.374 319.61 402.73 319.724 403.235L322.206 414.412C322.458 415.572 321.551 416.663 320.368 416.652C315.44 416.571 313.039 416.273 306.825 416.273C303 416.273 298.095 416.675 292.823 416.675C287.551 416.675 286.85 411.46 289.021 410.977C298.704 408.852 299.393 405.935 302.495 403.143C303.057 402.638 303.781 402.374 304.539 402.374H304.528Z" fill="#263238"/>
<g opacity="0.2">
<path d="M311.489 375.966H298.899L302.414 392.082L314.751 390.968L311.489 375.966Z" fill="black"/>
</g>
<path d="M333.521 99.8757C338.058 111.5 341.297 118.082 338.276 126.525C333.728 139.229 317.371 140.504 309.456 130.464C302.335 121.424 296.109 103.93 305.092 94.3162C313.948 84.8398 328.984 88.2513 333.521 99.8757Z" fill="#FF8B7B"/>
<path d="M311.443 117.289C309.559 119.816 308.112 121.735 308.112 121.735C308.112 121.735 304.241 112.12 305.723 107.709C303.839 103.976 300.037 109.478 298.601 102.207C297.165 94.9365 303.368 87.1256 305.723 85.506C306.056 86.0459 306.033 88.1134 306.033 88.1134C306.033 88.1134 315.325 79.8317 328.558 80.9918C327.65 81.8992 327.294 84.3803 327.294 84.3803C327.294 84.3803 340.929 86.7236 344.03 94.3966C342.077 93.4547 340.596 93.179 340.596 93.179C340.596 93.179 344.501 98.0263 343.352 105.504C342.204 112.982 341.664 121.229 341.802 124.491C341.94 127.753 332.98 133.991 327.524 127.317C322.068 120.655 311.431 117.289 311.431 117.289H311.443Z" fill="#263238"/>
<path d="M317.128 114.785C317.921 117.634 317.519 120.701 316.542 122.941C315.083 126.318 312.085 125.548 310.604 122.55C309.26 119.851 308.41 114.831 310.788 112.43C313.131 110.064 316.232 111.523 317.128 114.774V114.785Z" fill="#FF8B7B"/>
<path d="M340.746 245.984C340.746 245.984 282.348 267.154 280.625 295.181C277.455 346.79 298.567 387.648 298.567 387.648L317.91 385.58C317.91 385.58 314.476 368.971 311.903 322.221C308.675 263.467 408.378 323.599 387.852 245.996H340.757L340.746 245.984Z" fill="#407BFF"/>
<path opacity="0.5" d="M340.746 245.984C340.746 245.984 282.348 267.154 280.625 295.181C277.455 346.79 298.567 387.648 298.567 387.648L317.91 385.58C317.91 385.58 314.476 368.971 311.903 322.221C308.675 263.467 408.378 323.599 387.852 245.996H340.757L340.746 245.984Z" fill="white"/>
<path d="M293.214 380.526C293.122 380.526 296.292 389.107 296.292 389.107L320.448 386.741L319.231 378.93L293.214 380.515V380.526Z" fill="#407BFF"/>
<path d="M263.475 406.498H250.897L247.222 377.379H259.799L263.475 406.498Z" fill="#FF8B7B"/>
<path d="M250.806 402.374L264.544 402.351C265.06 402.351 265.508 402.707 265.612 403.212L268.116 414.389C268.38 415.549 267.496 416.652 266.312 416.629C261.362 416.548 254.206 416.273 247.968 416.284C240.686 416.284 239.296 416.698 230.75 416.709C225.593 416.709 224.145 411.494 226.305 411.023C236.137 408.852 239.285 408.622 247.773 403.373C248.692 402.799 249.714 402.385 250.806 402.385V402.374Z" fill="#263238"/>
<path opacity="0.2" d="M247.233 377.391L249.232 393.254L261.706 392.392L259.811 377.391H247.233Z" fill="black"/>
<path d="M320.587 245.984C320.587 245.984 224.892 254.473 225.926 302.533C227.006 352.522 245.672 386.235 245.672 386.235H264.36C264.36 386.235 260.822 360.31 261.443 311.09C261.626 296.341 291.423 291.471 320.518 289.76C345.651 288.278 369.175 273.954 378.938 250.74L380.937 245.984H320.587Z" fill="#407BFF"/>
<path opacity="0.5" d="M320.587 245.984C320.587 245.984 224.892 254.473 225.926 302.533C227.006 352.522 245.672 386.235 245.672 386.235H264.36C264.36 386.235 260.822 360.31 261.443 311.09C261.626 296.341 291.423 291.471 320.518 289.76C345.651 288.278 369.175 273.954 378.938 250.74L380.937 245.984H320.587Z" fill="white"/>
<path d="M241.306 381.204C241.226 381.204 244.511 389.842 244.511 389.842L267.059 388.234L265.75 380.411L241.306 381.204Z" fill="#407BFF"/>
<path d="M345.706 191.975L333.565 238.759C330.464 250.694 328.901 263.042 328.901 275.447V297.192C328.901 302.682 332.945 307.139 337.941 307.139H400.187C405.183 307.139 409.227 302.682 409.227 297.192V275.447C409.227 263.042 410.8 250.694 413.89 238.759L424.607 197.431C426.25 191.079 421.919 184.761 415.912 184.761H354.39C350.347 184.761 346.809 187.702 345.695 191.975H345.706Z" fill="#263238"/>
<path d="M268.299 284.487L270.332 296.089C271.4 302.188 276.776 307.139 282.324 307.139H351.508C357.056 307.139 360.685 302.188 359.617 296.089L357.584 284.487C356.366 277.538 350.255 271.91 343.938 271.91H277.523C271.205 271.91 267.081 277.538 268.299 284.487Z" fill="#263238"/>
<path d="M358.169 318.798H321.929L318.392 307.139H361.707L358.169 318.798Z" fill="#407BFF"/>
<path d="M346.522 318.798H333.577V405.418H346.522V318.798Z" fill="#407BFF"/>
<path opacity="0.7" d="M346.522 405.418H333.577V320.877L346.522 322.198V405.418Z" fill="white"/>
<path opacity="0.7" d="M343.364 405.418H340.274V321.555L343.364 321.876V405.418Z" fill="white"/>
<path d="M369.817 418.8H310.271C308.674 418.8 308.008 416.766 309.294 415.825L318.748 408.898C323.285 405.567 328.764 403.775 334.392 403.775H345.707C351.335 403.775 356.814 405.567 361.351 408.898L370.805 415.825C372.091 416.766 371.425 418.8 369.828 418.8H369.817Z" fill="#407BFF"/>
</svg>
