<svg width="48" height="48" viewBox="0 0 48 48" fill="none" xmlns="http://www.w3.org/2000/svg">
<rect width="48" height="48" rx="24" fill="#292929"/>
<path d="M18.96 12H29.04C32.88 12 36 15.12 36 18.96V29.04C36 30.8859 35.2667 32.6562 33.9615 33.9615C32.6562 35.2667 30.8859 36 29.04 36H18.96C15.12 36 12 32.88 12 29.04V18.96C12 17.1141 12.7333 15.3438 14.0385 14.0385C15.3438 12.7333 17.1141 12 18.96 12ZM18.72 14.4C17.5743 14.4 16.4755 14.8551 15.6653 15.6653C14.8551 16.4755 14.4 17.5743 14.4 18.72V29.28C14.4 31.668 16.332 33.6 18.72 33.6H29.28C30.4257 33.6 31.5245 33.1449 32.3347 32.3347C33.1449 31.5245 33.6 30.4257 33.6 29.28V18.72C33.6 16.332 31.668 14.4 29.28 14.4H18.72ZM30.3 16.2C30.6978 16.2 31.0794 16.358 31.3607 16.6393C31.642 16.9206 31.8 17.3022 31.8 17.7C31.8 18.0978 31.642 18.4794 31.3607 18.7607C31.0794 19.042 30.6978 19.2 30.3 19.2C29.9022 19.2 29.5206 19.042 29.2393 18.7607C28.958 18.4794 28.8 18.0978 28.8 17.7C28.8 17.3022 28.958 16.9206 29.2393 16.6393C29.5206 16.358 29.9022 16.2 30.3 16.2ZM24 18C25.5913 18 27.1174 18.6321 28.2426 19.7574C29.3679 20.8826 30 22.4087 30 24C30 25.5913 29.3679 27.1174 28.2426 28.2426C27.1174 29.3679 25.5913 30 24 30C22.4087 30 20.8826 29.3679 19.7574 28.2426C18.6321 27.1174 18 25.5913 18 24C18 22.4087 18.6321 20.8826 19.7574 19.7574C20.8826 18.6321 22.4087 18 24 18ZM24 20.4C23.0452 20.4 22.1295 20.7793 21.4544 21.4544C20.7793 22.1295 20.4 23.0452 20.4 24C20.4 24.9548 20.7793 25.8705 21.4544 26.5456C22.1295 27.2207 23.0452 27.6 24 27.6C24.9548 27.6 25.8705 27.2207 26.5456 26.5456C27.2207 25.8705 27.6 24.9548 27.6 24C27.6 23.0452 27.2207 22.1295 26.5456 21.4544C25.8705 20.7793 24.9548 20.4 24 20.4Z" fill="#E7E7E7"/>
</svg>
