<svg width="166" height="151" viewBox="0 0 166 151" fill="none" xmlns="http://www.w3.org/2000/svg">
<g filter="url(#filter0_b_472_1034)">
<rect x="37" y="50" width="129" height="101" rx="4" fill="url(#paint0_linear_472_1034)"/>
</g>
<g filter="url(#filter1_b_472_1034)">
<rect x="10" y="10" width="129" height="117" rx="4" fill="url(#paint1_linear_472_1034)"/>
</g>
<g filter="url(#filter2_b_472_1034)">
<path d="M8.54661 3.01218C8.84128 2.08118 10.1587 2.08118 10.4534 3.01217L11.6273 6.72108C11.7255 7.03139 11.9686 7.27449 12.2789 7.37271L15.9878 8.54661C16.9188 8.84128 16.9188 10.1587 15.9878 10.4534L12.2789 11.6273C11.9686 11.7255 11.7255 11.9686 11.6273 12.2789L10.4534 15.9878C10.1587 16.9188 8.84128 16.9188 8.54661 15.9878L7.37271 12.2789C7.27449 11.9686 7.03139 11.7255 6.72108 11.6273L3.01218 10.4534C2.08118 10.1587 2.08118 8.84128 3.01217 8.54661L6.72108 7.37271C7.03139 7.27449 7.27449 7.03139 7.37271 6.72108L8.54661 3.01218Z" fill="url(#paint2_linear_472_1034)"/>
</g>
<defs>
<filter id="filter0_b_472_1034" x="-63" y="-50" width="329" height="301" filterUnits="userSpaceOnUse" color-interpolation-filters="sRGB">
<feFlood flood-opacity="0" result="BackgroundImageFix"/>
<feGaussianBlur in="BackgroundImageFix" stdDeviation="50"/>
<feComposite in2="SourceAlpha" operator="in" result="effect1_backgroundBlur_472_1034"/>
<feBlend mode="normal" in="SourceGraphic" in2="effect1_backgroundBlur_472_1034" result="shape"/>
</filter>
<filter id="filter1_b_472_1034" x="-90" y="-90" width="329" height="317" filterUnits="userSpaceOnUse" color-interpolation-filters="sRGB">
<feFlood flood-opacity="0" result="BackgroundImageFix"/>
<feGaussianBlur in="BackgroundImageFix" stdDeviation="50"/>
<feComposite in2="SourceAlpha" operator="in" result="effect1_backgroundBlur_472_1034"/>
<feBlend mode="normal" in="SourceGraphic" in2="effect1_backgroundBlur_472_1034" result="shape"/>
</filter>
<filter id="filter2_b_472_1034" x="-1.6861" y="-1.68604" width="22.3722" height="22.3721" filterUnits="userSpaceOnUse" color-interpolation-filters="sRGB">
<feFlood flood-opacity="0" result="BackgroundImageFix"/>
<feGaussianBlur in="BackgroundImageFix" stdDeviation="2"/>
<feComposite in2="SourceAlpha" operator="in" result="effect1_backgroundBlur_472_1034"/>
<feBlend mode="normal" in="SourceGraphic" in2="effect1_backgroundBlur_472_1034" result="shape"/>
</filter>
<linearGradient id="paint0_linear_472_1034" x1="101.5" y1="50" x2="101.5" y2="151" gradientUnits="userSpaceOnUse">
<stop stop-color="#D9D9D9" stop-opacity="0.12"/>
<stop offset="1" stop-color="#737373" stop-opacity="0.13"/>
</linearGradient>
<linearGradient id="paint1_linear_472_1034" x1="74.5" y1="10" x2="74.5" y2="127" gradientUnits="userSpaceOnUse">
<stop stop-color="#D9D9D9" stop-opacity="0.12"/>
<stop offset="1" stop-color="#737373" stop-opacity="0.13"/>
</linearGradient>
<linearGradient id="paint2_linear_472_1034" x1="9.5" y1="0" x2="9.5" y2="19" gradientUnits="userSpaceOnUse">
<stop stop-color="#D9D9D9" stop-opacity="0.66"/>
<stop offset="1" stop-color="#737373" stop-opacity="0.42"/>
</linearGradient>
</defs>
</svg>
