<svg width="408" height="75" viewBox="0 0 408 75" fill="none" xmlns="http://www.w3.org/2000/svg">
<path d="M0.117192 4C0.117192 6.14442 1.85558 7.88281 4 7.88281C6.14442 7.88281 7.88281 6.14442 7.88281 4C7.88281 1.85558 6.14442 0.117192 4 0.117192C1.85558 0.117192 0.117192 1.85558 0.117192 4ZM402.515 3.48521C402.23 3.2009 401.77 3.2009 401.485 3.48521L396.852 8.11834C396.568 8.40265 396.568 8.86361 396.852 9.14792C397.136 9.43224 397.597 9.43224 397.882 9.14792L402 5.02959L406.118 9.14792C406.403 9.43224 406.864 9.43224 407.148 9.14792C407.432 8.86361 407.432 8.40265 407.148 8.11834L402.515 3.48521ZM3.27197 4V11.75H4.72803V4H3.27197ZM3.27197 27.25V42.75H4.72803V27.25H3.27197ZM3.27197 58.25V66H4.72803V58.25H3.27197ZM3.27197 66C3.27197 70.8204 7.17964 74.728 12 74.728V73.272C7.9838 73.272 4.72803 70.0162 4.72803 66H3.27197ZM12 74.728H19.9583V73.272H12V74.728ZM35.875 74.728H51.7917V73.272H35.875V74.728ZM67.7083 74.728H83.625V73.272H67.7083V74.728ZM99.5417 74.728H115.458V73.272H99.5417V74.728ZM131.375 74.728H147.292V73.272H131.375V74.728ZM163.208 74.728H179.125V73.272H163.208V74.728ZM195.042 74.728H210.958V73.272H195.042V74.728ZM226.875 74.728H242.792V73.272H226.875V74.728ZM258.708 74.728H274.625V73.272H258.708V74.728ZM290.542 74.728H306.458V73.272H290.542V74.728ZM322.375 74.728H338.292V73.272H322.375V74.728ZM354.208 74.728H370.125V73.272H354.208V74.728ZM386.042 74.728H394V73.272H386.042V74.728ZM394 74.728C398.82 74.728 402.728 70.8204 402.728 66H401.272C401.272 70.0162 398.016 73.272 394 73.272V74.728ZM402.728 66V58.25H401.272V66H402.728ZM402.728 42.75V27.25H401.272V42.75H402.728ZM402.728 11.75V4H401.272V11.75H402.728Z" fill="#5A5A5A"/>
</svg>
