<svg width="406" height="75" viewBox="0 0 406 75" fill="none" xmlns="http://www.w3.org/2000/svg">
<path d="M0.117192 71C0.117192 68.8556 1.85558 67.1172 4 67.1172C6.14442 67.1172 7.88281 68.8556 7.88281 71C7.88281 73.1444 6.14442 74.8828 4 74.8828C1.85558 74.8828 0.117192 73.1444 0.117192 71ZM400.515 71.5148C400.23 71.7991 399.77 71.7991 399.485 71.5148L394.852 66.8817C394.568 66.5973 394.568 66.1364 394.852 65.8521C395.136 65.5678 395.597 65.5678 395.882 65.8521L400 69.9704L404.118 65.8521C404.403 65.5678 404.864 65.5678 405.148 65.8521C405.432 66.1364 405.432 66.5973 405.148 66.8817L400.515 71.5148ZM3.27197 71V63.25H4.72803V71H3.27197ZM3.27197 47.75V32.25H4.72803V47.75H3.27197ZM3.27197 16.75V9H4.72803V16.75H3.27197ZM3.27197 9C3.27197 4.17964 7.17964 0.271973 12 0.271973V1.72803C7.9838 1.72803 4.72803 4.9838 4.72803 9H3.27197ZM12 0.271973H19.9167V1.72803H12V0.271973ZM35.75 0.271973H51.5833V1.72803H35.75V0.271973ZM67.4167 0.271973H83.25V1.72803H67.4167V0.271973ZM99.0833 0.271973H114.917V1.72803H99.0833V0.271973ZM130.75 0.271973H146.583V1.72803H130.75V0.271973ZM162.417 0.271973H178.25V1.72803H162.417V0.271973ZM194.083 0.271973H209.917V1.72803H194.083V0.271973ZM225.75 0.271973H241.583V1.72803H225.75V0.271973ZM257.417 0.271973H273.25V1.72803H257.417V0.271973ZM289.083 0.271973H304.917V1.72803H289.083V0.271973ZM320.75 0.271973H336.583V1.72803H320.75V0.271973ZM352.417 0.271973H368.25V1.72803H352.417V0.271973ZM384.083 0.271973H392V1.72803H384.083V0.271973ZM392 0.271973C396.82 0.271973 400.728 4.17964 400.728 9H399.272C399.272 4.9838 396.016 1.72803 392 1.72803V0.271973ZM400.728 9V16.75H399.272V9H400.728ZM400.728 32.25V47.75H399.272V32.25H400.728ZM400.728 63.25V71H399.272V63.25H400.728Z" fill="#5A5A5A"/>
</svg>
